<svg width="26" height="26" fill="none" xmlns="http://www.w3.org/2000/svg"><path fill-rule="evenodd" clip-rule="evenodd" d="M3.406.116c-.235.158-.309.318-.284.613.02.247.021.247 1.195 1.423.646.646 1.175 1.21 1.175 1.252 0 .042-.442.518-.983 1.059-.854.853-.996.976-1.08.93-.052-.03-.598-.56-1.212-1.177-.614-.619-1.179-1.157-1.254-1.197a.67.67 0 00-.876.278c-.118.227-.115 2.858.003 3.259.076.256.164.359 1.276 1.479.94.945 1.251 1.228 1.455 1.32.251.114.31.118 1.938.133l1.68.016 1.324 1.33 1.325 1.33-3.917 3.404c-2.299 1.997-4.016 3.527-4.157 3.704-1.259 1.567-1.184 3.889.171 5.338.53.566 1.131.93 1.9 1.15.576.165 1.598.165 2.176 0A4.574 4.574 0 006.74 25c.176-.142 1.71-1.865 3.703-4.16l3.402-3.917 1.34 1.335 1.34 1.336.005 1.67c.005 1.628.008 1.674.123 1.928.092.204.375.515 1.32 1.455 1.143 1.136 1.217 1.2 1.492 1.28.246.071.523.081 1.904.068l1.615-.015.28-.138c.215-.106.53-.39 1.377-1.244.663-.668 1.147-1.198 1.219-1.336.118-.224.12-.258.135-1.87.013-1.404.003-1.683-.068-1.93-.08-.274-.144-.349-1.28-1.491-.939-.946-1.25-1.229-1.454-1.321-.254-.115-.3-.118-1.929-.124l-1.669-.006-1.678-1.679-1.678-1.678.358-.383c.269-.289.371-.44.415-.613a.982.982 0 00-.149-.804l-.11-.15 1.478-1.482c1.586-1.59 1.592-1.598 1.373-1.877a.31.31 0 00-.266-.134c-.144 0-.324.163-1.635 1.474l-1.473 1.473-.444-.445-.443-.446 2.843-2.843 2.843-2.844.444.444.444.444-.774.776c-.846.847-.895.936-.65 1.182.245.245.329.198 1.22-.687l.816-.812.199.055c.254.07.541.025.877-.137.242-.118.356-.246 1.283-1.445.56-.724 1.042-1.373 1.073-1.44a.431.431 0 00.027-.243c-.016-.065-.506-.592-1.088-1.172C24.002.159 23.82 0 23.692 0c-.117 0-.452.235-1.53 1.069-1.29.997-1.39 1.087-1.52 1.352-.141.288-.185.665-.11.933.034.118-.203.369-2.847 3.014L14.8 9.252l-.187-.126c-.449-.305-.84-.223-1.388.289l-.38.354L11.179 8.1 9.51 6.432l-.015-1.68c-.016-1.629-.02-1.687-.134-1.939-.092-.204-.374-.515-1.32-1.455C6.92.246 6.818.158 6.562.081 6.339.016 6.026 0 4.932 0 3.606 0 3.574.002 3.406.116zM6.37.833c.09.039.639.55 1.22 1.134.885.89 1.064 1.095 1.103 1.262.025.11.047.862.047 1.672l.002 1.472-1.18 1.182-1.18 1.181-1.473-.001c-.81 0-1.563-.022-1.673-.048-.167-.038-.371-.217-1.262-1.103C1.39 7.002.88 6.454.841 6.364.787 6.238.77 5.918.77 5.018v-1.18L1.9 4.963c.805.802 1.173 1.134 1.282 1.158.084.019.19.045.238.057a.843.843 0 00.305-.034c.186-.05.377-.215 1.303-1.133.596-.591 1.116-1.148 1.155-1.238a.935.935 0 00-.007-.714c-.05-.122-.454-.566-1.13-1.243L3.996.762H5.1c.835 0 1.145.017 1.269.07zm18.022.779c.385.384.7.716.7.74 0 .048-1.418 1.9-1.668 2.18-.204.226-.434.287-.655.173-.214-.11-1.396-1.322-1.476-1.512-.086-.204-.04-.403.132-.567C21.64 2.42 23.587.92 23.643.917c.028-.001.365.311.75.695zm-6.48 16.29l-.97.977-4.912-4.906-4.913-4.906.977-.978.977-.979 4.905 4.907 4.906 4.907-.97.977zM9.093 9.087c-.128.128-.152.185-.125.297.022.093 1.223 1.33 3.673 3.783 3.244 3.247 3.658 3.644 3.797 3.644a.395.395 0 00.377-.384c0-.13-.472-.622-3.643-3.791-2.452-2.451-3.689-3.652-3.782-3.675-.112-.027-.168-.003-.297.126zm6.135 1.692c.593.593 1.08 1.101 1.08 1.129 0 .027-.143.193-.317.369l-.317.32-1.13-1.13-1.13-1.13.315-.318c.174-.176.339-.319.368-.319.028 0 .537.486 1.13 1.079zm-2.034 5.732a836.83 836.83 0 01-3.183 3.672L6.94 23.718 5.56 22.34c-1.296-1.294-1.389-1.375-1.524-1.342-.205.05-.327.19-.332.38-.004.15.118.288 1.361 1.534l1.366 1.37-.177.15c-.27.23-.96.55-1.378.639-.494.105-1.265.068-1.72-.083a3.297 3.297 0 01-2.132-2.133C.873 22.4.836 21.631.942 21.129c.087-.416.4-1.09.636-1.37l.149-.178.38.368c.418.405.569.455.78.257.215-.202.162-.375-.24-.78l-.357-.359.42-.359c.232-.197 1.883-1.63 3.67-3.184l3.25-2.826 1.837 1.838 1.838 1.837-.111.139zm9.583.806c.167.038.372.217 1.262 1.103.584.582 1.094 1.131 1.133 1.22.09.206.104 3.02.017 3.25-.07.184-2.046 2.173-2.26 2.275-.23.109-3.036.114-3.285.006-.09-.039-.64-.55-1.22-1.134-.886-.89-1.065-1.095-1.104-1.262-.066-.286-.06-2.795.008-3.044.045-.166.247-.396 1.105-1.259.786-.79 1.1-1.074 1.252-1.127.236-.085 2.752-.107 3.092-.028zm-2.441.916c-.372.078-.588.233-1.247.898-.85.857-.868.898-.894 1.976-.031 1.308.042 1.486.993 2.42.769.755.808.771 1.983.792 1.34.024 1.312.035 2.253-.9.934-.93.921-.9.897-2.254-.022-1.205-.04-1.245-.947-2.13-.823-.803-.846-.813-1.99-.832-.46-.008-.932.005-1.048.03zm1.779.766c.23.064 1.073.846 1.308 1.212.144.224.145.233.145 1.03 0 .577-.02.851-.071.968-.09.207-1.125 1.232-1.316 1.304-.079.03-.503.053-.942.053-.792 0-.801-.001-1.025-.145-.366-.235-1.147-1.079-1.211-1.309-.067-.238-.071-1.389-.007-1.666.037-.16.166-.32.651-.805.442-.441.652-.616.778-.646.26-.061 1.465-.058 1.69.004z" fill="#000"/></svg>