<svg width="29" height="26" fill="none" xmlns="http://www.w3.org/2000/svg"><path fill-rule="evenodd" clip-rule="evenodd" d="M6.468.072C5.426.352 4.556 1.23 4.307 2.25c-.062.253-.173 9.794-.176 15.07l-.001 1.985H2.214c-1.846 0-1.92.004-2.038.114a.615.615 0 00-.158.248c-.018.074-.024.802-.011 1.618.021 1.426.028 1.501.173 1.935.493 1.478 1.76 2.533 3.273 2.73.335.043 2.967.057 8.806.045 8.278-.017 8.33-.018 8.673-.135a4.102 4.102 0 001.644-1.006 3.827 3.827 0 001.04-1.69l.144-.452.015-7.503.016-7.504 2.468-.016 2.468-.016.136-.158.137-.158v-2.32c-.002-2.453-.021-2.68-.28-3.259-.318-.712-1.006-1.34-1.796-1.64l-.332-.125-9.914-.011c-8.398-.01-9.96.001-10.21.069zm17.207.863c0 .027-.08.147-.176.268-.199.248-.385.595-.54 1.007-.101.27-.107.697-.134 10.393-.027 9.815-.032 10.119-.138 10.392-.298.768-.838 1.396-1.489 1.73-.486.25-.836.335-1.388.335-1.334 0-2.481-.871-2.906-2.206-.08-.25-.104-.596-.127-1.797-.027-1.467-.03-1.49-.16-1.62l-.132-.131H5.021l.036-1.592c.02-.875.05-4.544.069-8.153.018-3.609.055-6.721.081-6.916.119-.882.8-1.568 1.687-1.697.43-.063 16.78-.075 16.78-.013zm3.137.195a2.11 2.11 0 011.012.988l.185.371.016 2.128.016 2.128h-4.257l.016-2.098.016-2.099.175-.366c.519-1.089 1.74-1.544 2.821-1.052zm-15.18 2.933c-1.205.59-1.908.966-1.97 1.052-.083.119-.094.35-.093 2.023.001 2 .027 2.256.286 2.846.202.458.606 1.021.92 1.284.35.292 2.618 1.833 2.801 1.903a.415.415 0 00.266-.003c.262-.1 2.668-1.774 2.953-2.056.337-.334.701-.925.885-1.438.126-.353.131-.442.148-2.385.016-1.805.008-2.034-.076-2.161-.127-.193-3.805-1.99-4.066-1.986-.115.001-.856.333-2.055.92zm3.68.82l1.565.759v1.725c0 1.58-.01 1.754-.114 2.054a2.687 2.687 0 01-.69 1.075c-.298.282-2.25 1.618-2.369 1.621-.134.003-2.222-1.453-2.475-1.726a2.625 2.625 0 01-.608-1.051c-.073-.25-.09-.62-.09-2.004V5.64l1.572-.766c.865-.421 1.588-.761 1.608-.756.02.005.74.35 1.6.767zm-.362 1.925c-.078.03-.49.4-.918.823l-.777.77-.365-.35c-.35-.333-.43-.374-.687-.352-.168.014-.369.265-.369.46 0 .137.102.273.542.724.605.62.785.729 1.038.625.09-.037.612-.519 1.161-1.07.907-.91.998-1.02.998-1.197a.466.466 0 00-.623-.433zM7.962 14.6c-.192.177-.197.42-.013.633l.137.158H19.7l.146-.137a.443.443 0 00.007-.654l-.139-.139H8.112l-.15.139zm.19 2.042c-.413.15-.456.65-.074.852.091.049 1.598.066 5.823.066 6.058 0 5.956.004 6.056-.256.109-.282.002-.55-.255-.64-.186-.064-11.375-.086-11.55-.022zm7.705 4.71c0 .598.027 1.238.061 1.421.13.704.58 1.56 1.065 2.022.128.122.233.244.233.27 0 .025-3.09.038-6.869.028-7.524-.02-7.033.002-7.768-.355-.425-.208-1.028-.8-1.266-1.243-.305-.57-.356-.871-.356-2.117v-1.115h14.9v1.088z" fill="#000"/></svg>