<svg width="138" height="28" fill="none" xmlns="http://www.w3.org/2000/svg"><g clip-path="url(#clip0_73_874)"><path d="M26.286 13.067C26.286 5.85 20.4 0 13.143 0 5.884 0 0 5.85 0 13.067c0 7.216 5.884 13.066 13.143 13.066 7.258 0 13.143-5.85 13.143-13.066z" fill="#000"/><path d="M14.826 7.403h-1.214c-2.226 0-3.397 1.121-3.397 2.774 0 1.869.809 2.746 2.471 3.867l1.374.92-3.947 5.863H7.165l3.542-5.245c-2.04-1.452-3.181-2.86-3.181-5.246 0-2.99 2.096-5.03 6.072-5.03h3.947v15.507h-2.72V7.403z" fill="#fff"/><path d="M63.223 23.575c.318.114.868.286 1.651.286 2.723 0 3.824-1.857 5.36-5.539l6.113-14.589h-3.274L68.93 14.24 64.642 3.733h-3.621l6.142 14.617c-.61 1.456-1.218 2.455-2.608 2.455-.637 0-1.042-.085-1.333-.199v2.969zm18.37.286c1.594 0 2.723-.286 3.564-.886v-2.768c-.869.6-1.912.97-3.36.97-2.464 0-3.478-1.883-3.478-4.853 0-3.112 1.246-4.71 3.507-4.71 1.333 0 2.636.457 3.331.885V9.613c-.724-.4-2-.685-3.708-.685-4.404 0-6.693 3.112-6.693 7.48 0 4.796 2.231 7.452 6.838 7.452zm4.58-3.227v2.94s.55.287 1.361.287c2.956 0 3.709-2.056 3.883-6.823l.203-5.14h3.505v11.676h3.448V9.216h-9.88l-.29 7.68c-.115 3.054-.319 3.997-1.448 3.997-.493 0-.782-.258-.782-.258zM103.332 28c3.216 0 4.404-2.255 5.39-5.196l4.548-13.59h-3.332l-3.216 10.792-3.215-10.791h-3.622l5.012 14.988c-.376.685-.928 1.114-1.883 1.114-.638 0-1.188-.2-1.565-.572v2.77s.522.485 1.883.485zm11.246-18.785v14.36h3.448V11.9h5.33V9.214h-8.778zm10.808 0v14.36h2.984l5.331-8.879v8.88h3.36V9.214h-2.984l-5.33 8.879v-8.88h-3.361zm-84.08 16.918c7.259 0 13.143-5.85 13.143-13.066C54.449 5.85 48.565 0 41.306 0S28.163 5.85 28.163 13.067c0 7.216 5.884 13.066 13.143 13.066z" fill="#000"/><path d="M37.331 4.571a6.495 6.495 0 00-2.78 4.066 6.465 6.465 0 00.881 4.838 6.533 6.533 0 004.038 2.839 6.567 6.567 0 004.882-.787l9.588-6.073a13.076 13.076 0 00-3.657-5.931 13.19 13.19 0 00-6.197-3.23L37.33 4.571z" fill="#FF9D7C"/><path d="M37.331 4.571a6.495 6.495 0 00-2.78 4.066 6.465 6.465 0 00.881 4.838 6.533 6.533 0 004.038 2.839 6.567 6.567 0 004.882-.787l9.588-6.073a13.076 13.076 0 00-3.657-5.931 13.19 13.19 0 00-6.197-3.23L37.33 4.571z" fill="#FF6432"/><path d="M37.331 4.571a6.495 6.495 0 00-2.78 4.066 6.465 6.465 0 00.881 4.838 6.533 6.533 0 004.038 2.839 6.567 6.567 0 004.882-.787l9.588-6.073a13.076 13.076 0 00-3.657-5.931 13.19 13.19 0 00-6.197-3.23L37.33 4.571z" fill="url(#paint0_radial_73_874)"/><path d="M37.331 4.571a6.495 6.495 0 00-2.78 4.066 6.465 6.465 0 00.881 4.838 6.533 6.533 0 004.038 2.839 6.567 6.567 0 004.882-.787l9.588-6.073a13.076 13.076 0 00-3.657-5.931 13.19 13.19 0 00-6.197-3.23L37.33 4.571z" fill="url(#paint1_linear_73_874)"/><path d="M28.67 16.673l9.593-6.076a6.555 6.555 0 014.924-.863 6.56 6.56 0 012.333 1.02 6.51 6.51 0 011.763 1.832 6.473 6.473 0 01.868 4.895 6.476 6.476 0 01-1.027 2.32 6.517 6.517 0 01-1.841 1.753l-6.766 4.284a13.19 13.19 0 01-6.194-3.233 13.076 13.076 0 01-3.653-5.932z" fill="#FFE66E"/><path d="M28.67 16.673l9.593-6.076a6.555 6.555 0 014.924-.863 6.56 6.56 0 012.333 1.02 6.51 6.51 0 011.763 1.832 6.473 6.473 0 01.868 4.895 6.476 6.476 0 01-1.027 2.32 6.517 6.517 0 01-1.841 1.753l-6.766 4.284a13.19 13.19 0 01-6.194-3.233 13.076 13.076 0 01-3.653-5.932z" fill="url(#paint2_linear_73_874)"/></g><defs><linearGradient id="paint1_linear_73_874" x1="39.129" y1="14.842" x2="48.154" y2="-7.07" gradientUnits="userSpaceOnUse"><stop stop-color="#FF8140" stop-opacity="0"/><stop offset=".067" stop-color="#FF8140" stop-opacity=".01"/><stop offset=".133" stop-color="#FF8140" stop-opacity=".036"/><stop offset=".2" stop-color="#FF8140" stop-opacity=".082"/><stop offset=".267" stop-color="#FF8140" stop-opacity=".147"/><stop offset=".333" stop-color="#FF8140" stop-opacity=".232"/><stop offset=".4" stop-color="#FF8140" stop-opacity=".332"/><stop offset=".467" stop-color="#FF8140" stop-opacity=".443"/><stop offset=".533" stop-color="#FF8140" stop-opacity=".557"/><stop offset=".6" stop-color="#FF8140" stop-opacity=".668"/><stop offset=".667" stop-color="#FF8140" stop-opacity=".768"/><stop offset=".733" stop-color="#FF8140" stop-opacity=".853"/><stop offset=".8" stop-color="#FF8140" stop-opacity=".918"/><stop offset=".867" stop-color="#FF8140" stop-opacity=".964"/><stop offset=".933" stop-color="#FF8140" stop-opacity=".991"/><stop offset="1" stop-color="#FF8140"/></linearGradient><linearGradient id="paint2_linear_73_874" x1="39.521" y1="14.807" x2="30.925" y2="27.152" gradientUnits="userSpaceOnUse"><stop stop-color="#FFD750" stop-opacity="0"/><stop offset="1" stop-color="#FFD750"/></linearGradient><radialGradient id="paint0_radial_73_874" cx="0" cy="0" r="1" gradientUnits="userSpaceOnUse" gradientTransform="rotate(-34.727 48.255 -52.118) scale(15.7079 11.5364)"><stop stop-color="#CC0700" stop-opacity=".97"/><stop offset=".067" stop-color="#CC0700" stop-opacity=".962"/><stop offset=".133" stop-color="#CC0700" stop-opacity=".936"/><stop offset=".2" stop-color="#CC0700" stop-opacity=".891"/><stop offset=".267" stop-color="#CC0700" stop-opacity=".827"/><stop offset=".333" stop-color="#CC0700" stop-opacity=".745"/><stop offset=".4" stop-color="#CC0700" stop-opacity=".648"/><stop offset=".467" stop-color="#CC0700" stop-opacity=".541"/><stop offset=".533" stop-color="#CC0700" stop-opacity=".429"/><stop offset=".6" stop-color="#CC0700" stop-opacity=".322"/><stop offset=".667" stop-color="#CC0700" stop-opacity=".225"/><stop offset=".733" stop-color="#CC0700" stop-opacity=".143"/><stop offset=".8" stop-color="#CC0700" stop-opacity=".079"/><stop offset=".867" stop-color="#CC0700" stop-opacity=".034"/><stop offset=".933" stop-color="#CC0700" stop-opacity=".01"/><stop offset="1" stop-color="#CC0700" stop-opacity="0"/></radialGradient><clipPath id="clip0_73_874"><path fill="#fff" d="M0 0h138v28H0z"/></clipPath></defs></svg>