<svg width="26" height="26" viewBox="0 0 26 26" fill="none" xmlns="http://www.w3.org/2000/svg">
<path fill-rule="evenodd" clip-rule="evenodd" d="M3.40579 0.115804C3.17116 0.273968 3.09723 0.433655 3.1219 0.729108C3.14247 0.975598 3.14308 0.976309 4.31725 2.15167C4.96341 2.79844 5.49203 3.36192 5.49203 3.40388C5.49203 3.44583 5.04953 3.92235 4.50872 4.46282C3.65529 5.31566 3.51277 5.43852 3.42975 5.3925C3.37715 5.36335 2.83142 4.8337 2.21704 4.21552C1.60267 3.59729 1.0383 3.05875 0.9629 3.01867C0.661805 2.85883 0.244891 2.99115 0.0869813 3.29665C-0.0305628 3.524 -0.0283287 6.15549 0.0897739 6.55552C0.16553 6.81232 0.253879 6.91467 1.36636 8.03456C2.30585 8.98034 2.617 9.26285 2.82086 9.35513C3.07245 9.46906 3.13054 9.47302 4.75919 9.48831L6.43817 9.50405L7.76294 10.8343L9.08771 12.1645L5.17138 15.5675C2.87229 17.5653 1.15534 19.0948 1.01357 19.2715C-0.244579 20.8391 -0.169839 23.1609 1.18545 24.6102C1.71467 25.1761 2.31636 25.5405 3.08453 25.7602C3.66103 25.9251 4.68334 25.925 5.26065 25.7598C5.76159 25.6166 6.3452 25.3165 6.73982 24.9994C6.91606 24.8578 8.44982 23.1349 10.4426 20.8401L13.8445 16.9226L15.1844 18.2584L16.5242 19.5942L16.5299 21.2632C16.5354 22.8925 16.5384 22.9384 16.653 23.1917C16.7452 23.3956 17.0279 23.7072 17.9731 24.647C19.1155 25.7829 19.1904 25.8472 19.4646 25.9267C19.7114 25.9983 19.9875 26.0082 21.3687 25.995L22.984 25.9797L23.2633 25.8422C23.4787 25.7361 23.7939 25.4514 24.6413 24.5978C25.3043 23.9299 25.7876 23.4003 25.8599 23.2624C25.9776 23.0379 25.98 23.0044 25.9951 21.3924C26.0082 19.9875 25.9983 19.7094 25.9267 19.4624C25.8473 19.1882 25.7829 19.1131 24.6475 17.9705C23.708 17.025 23.3964 16.7423 23.1926 16.65C22.9395 16.5354 22.893 16.5324 21.2643 16.5263L19.5952 16.5201L17.9171 14.8414L16.239 13.1627L16.5966 12.7797C16.8657 12.4914 16.9685 12.3399 17.012 12.1673C17.0816 11.8905 17.0244 11.5813 16.8634 11.3634L16.7525 11.2133L18.2308 9.73145C19.8169 8.14148 19.8231 8.13299 19.6038 7.8541C19.5296 7.75978 19.451 7.72027 19.3376 7.72027C19.1943 7.72027 19.0142 7.88259 17.7031 9.19357L16.2296 10.6669L15.7864 10.2215L15.3432 9.77614L18.1861 6.9327L21.029 4.0892L21.4728 4.53327L21.9168 4.97729L21.1429 5.75256C20.2969 6.60012 20.2479 6.68946 20.4938 6.93529C20.7384 7.18005 20.8218 7.13302 21.7122 6.24818L22.5291 5.43644L22.7279 5.49129C22.9817 5.56144 23.2695 5.51623 23.6052 5.35355C23.8475 5.23617 23.9611 5.10823 24.888 3.90859C25.4472 3.18466 25.9303 2.53646 25.9614 2.46815C25.9925 2.39978 26.0046 2.29079 25.9882 2.22587C25.9718 2.16096 25.4821 1.63355 24.9 1.05392C24.0018 0.159434 23.8191 5.07912e-05 23.6921 0.000355539C23.5753 0.000609495 23.2401 0.234655 22.1617 1.069C20.8726 2.06624 20.7715 2.15614 20.6423 2.42051C20.501 2.70941 20.4567 3.08567 20.5324 3.35415C20.5657 3.47229 20.3291 3.72264 17.6847 6.36764L14.8006 9.25233L14.6139 9.12551C14.1654 8.82111 13.7743 8.90253 13.2263 9.41451L12.8467 9.76908L11.1781 8.10044L9.50935 6.43179L9.49361 4.75233C9.47832 3.1232 9.47436 3.0651 9.36047 2.81343C9.26822 2.6095 8.98581 2.29825 8.04033 1.35846C6.92079 0.245626 6.81847 0.15725 6.56176 0.0814691C6.33896 0.0156437 6.02588 0 4.93178 0C3.60625 0 3.57395 0.00243797 3.40579 0.115804ZM6.36952 0.832925C6.45939 0.871984 7.00853 1.38223 7.58985 1.96679C8.47531 2.85721 8.65425 3.062 8.69299 3.22905C8.71842 3.33871 8.73975 4.09103 8.74041 4.90095L8.74163 6.37349L7.56152 7.55479L6.3814 8.73609L4.90852 8.73487C4.09846 8.73421 3.34597 8.71288 3.23635 8.68743C3.06935 8.64868 2.86463 8.46969 1.97449 7.58394C1.39012 7.00243 0.880036 6.45313 0.84099 6.36322C0.786864 6.23869 0.769956 5.9188 0.769956 5.01878V3.83773L1.8997 4.96271C2.7055 5.76516 3.07311 6.09738 3.18177 6.12146C3.26555 6.14 3.37294 6.16565 3.42046 6.1785C3.46794 6.1913 3.60503 6.17576 3.72511 6.14391C3.91145 6.09454 4.10217 5.92871 5.02789 5.01121C5.6244 4.42 6.14423 3.86277 6.18303 3.77287C6.27533 3.55919 6.27259 3.2932 6.17561 3.05855C6.12545 2.93721 5.72194 2.49309 5.04633 1.81579L3.99508 0.761868H5.1006C5.93601 0.761868 6.24609 0.779239 6.36952 0.832925ZM24.3924 1.61196C24.7767 1.99569 25.0912 2.32842 25.0912 2.35138C25.0912 2.40004 23.6743 4.2528 23.4238 4.53169C23.2202 4.75843 22.9898 4.81938 22.7687 4.70499C22.5548 4.59437 21.3728 3.38315 21.2931 3.19294C21.2074 2.9885 21.2537 2.78981 21.4252 2.62586C21.6398 2.42056 23.5874 0.920388 23.6434 0.917137C23.671 0.915563 24.008 1.22818 24.3924 1.61196ZM17.9118 17.9015L16.9418 18.8791L12.0295 13.973L7.11718 9.06679L8.09415 8.0886L9.07106 7.11036L13.9765 12.0172L18.8819 16.9239L17.9118 17.9015ZM9.09314 9.08772C8.96473 9.21617 8.94072 9.27305 8.96768 9.38495C8.99012 9.4781 10.191 10.7147 12.6412 13.1676C15.8849 16.4149 16.2985 16.8119 16.4377 16.8119C16.6357 16.8119 16.8148 16.6292 16.8148 16.4276C16.8148 16.2977 16.3428 15.8065 13.1717 12.637C10.7196 10.1859 9.4834 8.98466 9.39028 8.96221C9.27842 8.93524 9.22155 8.95927 9.09314 9.08772ZM15.2277 10.78C15.8214 11.3734 16.3071 11.8813 16.3071 11.9087C16.3071 11.9361 16.1647 12.1023 15.9907 12.278L15.6743 12.5973L14.5441 11.4675L13.4138 10.3378L13.7293 10.0195C13.9028 9.84435 14.068 9.70112 14.0965 9.70112C14.125 9.70112 14.634 10.1866 15.2277 10.78ZM13.1937 16.5117C13.1327 16.5881 11.7007 18.2407 10.0113 20.1841L6.93973 23.7177L5.55986 22.3407C4.26353 21.0471 4.17127 20.9659 4.03626 20.9989C3.83133 21.0489 3.70932 21.1887 3.70389 21.3795C3.69962 21.5297 3.82153 21.667 5.06527 22.9135L6.43137 24.2825L6.25365 24.4339C5.98404 24.6636 5.29492 24.9827 4.87593 25.072C4.38204 25.1773 3.61102 25.14 3.15638 24.989C2.126 24.6467 1.36631 23.8868 1.02414 22.856C0.872724 22.4 0.836014 21.6309 0.941676 21.1291C1.02926 20.7132 1.34234 20.0384 1.57784 19.7581L1.72686 19.5807L2.10615 19.9486C2.52469 20.3545 2.67559 20.4043 2.88656 20.2061C3.1019 20.0037 3.04879 19.8306 2.64726 19.4263L2.29046 19.067L2.71073 18.7084C2.94186 18.5112 4.59326 17.0782 6.38044 15.524L9.62994 12.6981L11.4673 14.5355L13.3046 16.3729L13.1937 16.5117ZM22.7771 17.3177C22.9441 17.3564 23.1488 17.5354 24.039 18.4212C24.6233 19.0027 25.1334 19.552 25.1725 19.6419C25.2617 19.8471 25.2763 22.661 25.1894 22.8908C25.1198 23.0749 23.1427 25.0642 22.9282 25.166C22.6986 25.275 19.8926 25.2803 19.6439 25.1722C19.5541 25.1331 19.0049 24.6229 18.4236 24.0383C17.5381 23.1479 17.3592 22.9431 17.3205 22.7761C17.2542 22.4902 17.26 19.9811 17.3276 19.7324C17.3727 19.5664 17.5747 19.3361 18.4326 18.4733C19.2186 17.6829 19.5334 17.3993 19.6847 17.3455C19.9208 17.2613 22.4369 17.2387 22.7771 17.3177ZM20.3358 18.2337C19.9636 18.3117 19.748 18.467 19.089 19.132C18.2391 19.9895 18.2207 20.0302 18.1951 21.1082C18.164 22.4163 18.2369 22.594 19.1879 23.5281C19.9567 24.2833 19.9962 24.2991 21.1709 24.3204C22.5103 24.3445 22.4829 24.3555 23.4237 23.4191C24.3575 22.4898 24.3453 22.5203 24.3209 21.1658C24.2991 19.9606 24.2816 19.9213 23.3745 19.0365C22.5505 18.2329 22.5282 18.2235 21.3846 18.2039C20.9238 18.196 20.4519 18.2094 20.3358 18.2337ZM22.1148 19.0004C22.3447 19.0643 23.1884 19.8457 23.4233 20.2122C23.5667 20.4361 23.5679 20.4447 23.5679 21.2423C23.5679 21.8186 23.5478 22.093 23.497 22.2101C23.4075 22.4167 22.372 23.4425 22.181 23.5137C22.1024 23.5431 21.6784 23.5671 21.2389 23.5671C20.447 23.5671 20.4377 23.5658 20.214 23.4224C19.8476 23.1875 19.0665 22.3435 19.0027 22.1135C18.9363 21.8745 18.9318 20.7244 18.9961 20.447C19.0332 20.2869 19.1622 20.1275 19.6474 19.6422C20.0887 19.2007 20.2991 19.0259 20.425 18.9963C20.6846 18.935 21.8899 18.938 22.1148 19.0004Z" fill="black"/>
</svg>
