<svg width="29" height="26" viewBox="0 0 29 26" fill="none" xmlns="http://www.w3.org/2000/svg">
<path fill-rule="evenodd" clip-rule="evenodd" d="M6.46807 0.0717894C5.42561 0.352579 4.55561 1.22987 4.30702 2.25096C4.24538 2.50409 4.13389 12.0449 4.13089 17.3201L4.12976 19.3056H2.21429C0.368401 19.3056 0.2943 19.3098 0.175501 19.4199C0.107688 19.4827 0.03693 19.5945 0.0182348 19.6684C-0.000403723 19.7424 -0.00561571 20.4704 0.00662113 21.2863C0.0280356 22.7121 0.0347772 22.7873 0.179863 23.2215C0.673416 24.6988 1.93908 25.7543 3.45293 25.9509C3.78848 25.9945 6.41986 26.0079 12.2593 25.9958C20.5371 25.9785 20.5893 25.9777 20.9318 25.8607C21.5956 25.6338 22.0932 25.3293 22.5755 24.8547C23.0971 24.3414 23.3973 23.8539 23.6162 23.1648L23.7596 22.7134L23.7754 15.2096L23.7912 7.70576L26.2589 7.68993L28.7267 7.67416L28.8633 7.51611L29 7.35806L28.9991 5.03773C28.9983 2.58487 28.9789 2.35888 28.72 1.77917C28.4019 1.06708 27.7137 0.438871 26.9238 0.139382L26.5923 0.0137165L16.6782 0.00284536C8.28003 -0.00633591 6.71881 0.00419725 6.46807 0.0717894ZM23.6747 0.935336C23.6747 0.962091 23.5957 1.08246 23.499 1.20289C23.3 1.45106 23.114 1.79804 22.9591 2.21046C22.8576 2.48055 22.8521 2.90734 22.8249 12.6028C22.7975 22.4175 22.7934 22.7216 22.6873 22.9951C22.3893 23.7634 21.8493 24.3909 21.1981 24.7256C20.7123 24.9754 20.3618 25.0598 19.8097 25.0598C18.4764 25.0599 17.3288 24.189 16.9039 22.8542C16.8242 22.6041 16.7999 22.2579 16.7774 21.0566C16.75 19.5902 16.7477 19.5668 16.6173 19.4372L16.4851 19.3056H10.7532H5.0214L5.05675 17.7144C5.07619 16.8392 5.10729 13.1702 5.12581 9.56111C5.14439 5.95197 5.18099 2.83958 5.20722 2.64474C5.32591 1.76266 6.00766 1.07688 6.89438 0.947615C7.32493 0.884811 23.6747 0.872926 23.6747 0.935336ZM26.8124 1.13006C27.2481 1.32838 27.6069 1.67851 27.8245 2.11775L28.0086 2.48945L28.0247 4.61708L28.0408 6.74477H25.9125H23.784L23.8002 4.6466L23.8163 2.54842L23.9909 2.18213C24.5098 1.0935 25.7314 0.637986 26.8124 1.13006ZM11.6314 4.06254C10.4271 4.65262 9.72352 5.02877 9.66279 5.1149C9.57917 5.23369 9.56847 5.46486 9.5692 7.13754C9.57005 9.13855 9.59577 9.39444 9.85524 9.98356C10.0569 10.4416 10.4606 11.0051 10.7756 11.2684C11.1244 11.56 13.3929 13.1009 13.5765 13.1709C13.65 13.199 13.7622 13.1975 13.8416 13.1675C14.1041 13.0683 16.5096 11.3939 16.7949 11.1119C17.1322 10.7784 17.496 10.187 17.6796 9.67376C17.8056 9.32144 17.8112 9.23171 17.8283 7.28905C17.8443 5.4835 17.8362 5.25543 17.752 5.12768C17.6249 4.93482 13.947 3.13884 13.6857 3.14205C13.5706 3.14346 12.8296 3.47545 11.6314 4.06254ZM15.3113 4.88368L16.8765 5.64183V7.36735C16.8765 8.94743 16.8669 9.12052 16.7629 9.42102C16.6202 9.83345 16.3853 10.1991 16.0721 10.4965C15.7753 10.7782 13.8226 12.1145 13.704 12.1171C13.57 12.12 11.4823 10.6637 11.2294 10.391C10.9375 10.076 10.7344 9.72485 10.6212 9.33963C10.548 9.09033 10.5314 8.71959 10.5314 7.33614V5.63862L12.1035 4.87309C12.9682 4.45204 13.6915 4.1116 13.7109 4.11656C13.7302 4.12152 14.4504 4.46674 15.3113 4.88368ZM14.9503 6.80763C14.8724 6.83765 14.4591 7.20834 14.032 7.63135L13.2553 8.40044L12.8896 8.05138C12.5405 7.71804 12.4607 7.67709 12.2027 7.69895C12.0353 7.71308 11.8344 7.96413 11.8344 8.15913C11.8344 8.29629 11.9362 8.43226 12.3758 8.88271C12.9814 9.50326 13.1614 9.61158 13.414 9.50754C13.5037 9.47059 14.0264 8.98934 14.5754 8.43818C15.4821 7.52777 15.5735 7.41816 15.5735 7.24101C15.5735 6.92333 15.2441 6.69424 14.9503 6.80763ZM7.96204 14.5997C7.77016 14.7765 7.76506 15.0204 7.94884 15.2329L8.0856 15.3909H13.8928H19.6999L19.8461 15.2544C20.041 15.0723 20.0441 14.7895 19.8532 14.5998L19.7142 14.4615H13.9131H8.11194L7.96204 14.5997ZM8.15205 16.6417C7.73945 16.7917 7.69572 17.2918 8.0775 17.494C8.16922 17.5426 9.67639 17.5595 13.9013 17.5595C19.959 17.5595 19.8566 17.5639 19.9571 17.3035C20.066 17.0215 19.9588 16.7533 19.7018 16.6642C19.5158 16.5998 8.32745 16.578 8.15205 16.6417ZM15.8567 21.3512C15.8567 21.9496 15.8844 22.5897 15.9181 22.7735C16.0474 23.4775 16.4982 24.3337 16.9826 24.7949C17.1112 24.9173 17.2164 25.0386 17.2164 25.0643C17.2164 25.0901 14.1253 25.103 10.3473 25.0929C2.82325 25.0729 3.31391 25.0954 2.5793 24.7375C2.15356 24.5301 1.55056 23.9385 1.31307 23.4952C1.00795 22.9257 0.957242 22.6239 0.957242 21.3779V20.2632H8.40699H15.8567V21.3512Z" fill="black"/>
</svg>
