<svg width="138" height="28" viewBox="0 0 138 28" fill="none" xmlns="http://www.w3.org/2000/svg">
<g clip-path="url(#clip0_73_874)">
<path d="M26.2857 13.0667C26.2857 5.85015 20.4015 0 13.1429 0C5.88426 0 0 5.85015 0 13.0667C0 20.2832 5.88426 26.1333 13.1429 26.1333C20.4015 26.1333 26.2857 20.2832 26.2857 13.0667Z" fill="black"/>
<path d="M14.8259 7.4032H13.6121C11.3862 7.4032 10.2146 8.52413 10.2146 10.1771C10.2146 12.0456 11.0239 12.9229 12.6864 14.0439L14.0599 14.9632L10.1132 20.8273H7.16455L10.7066 15.582C8.66753 14.1297 7.52598 12.7213 7.52598 10.3357C7.52598 7.34627 9.62226 5.30507 13.598 5.30507H17.5446V20.8133H14.8259V7.4032Z" fill="white"/>
<path d="M63.2229 23.5751C63.5411 23.6889 64.0912 23.8607 64.8742 23.8607C67.5966 23.8607 68.6978 22.0043 70.2337 18.3223L76.347 3.73333H73.0725L68.9297 14.2399L64.6423 3.73333H61.0205L67.1629 18.3503C66.5537 19.8063 65.9453 20.8049 64.555 20.8049C63.9176 20.8049 63.513 20.72 63.2219 20.6061V23.5741L63.2229 23.5751ZM81.5938 23.8607C83.1869 23.8607 84.3162 23.5751 85.1574 22.9749V20.2067C84.2881 20.8068 83.2451 21.1773 81.7965 21.1773C79.3332 21.1773 78.3193 19.2939 78.3193 16.324C78.3193 13.2123 79.5651 11.6135 81.8257 11.6135C83.1587 11.6135 84.4617 12.0708 85.1574 12.4992V9.61333C84.4326 9.21387 83.1578 8.92827 81.4492 8.92827C77.0454 8.92827 74.7557 12.04 74.7557 16.408C74.7557 21.2044 76.9872 23.8597 81.5938 23.8597V23.8607ZM86.1731 20.6341V23.5741C86.1731 23.5741 86.7232 23.8607 87.5343 23.8607C90.4896 23.8607 91.2425 21.8045 91.4171 17.038L91.6199 11.8981H95.1253V23.5741H98.5725V9.21573H88.6937L88.4037 16.8952C88.2882 19.95 88.0845 20.8927 86.9551 20.8927C86.4623 20.8927 86.1731 20.6351 86.1731 20.6351V20.6341ZM103.332 28C106.548 28 107.736 25.7451 108.722 22.8041L113.27 9.2148H109.938L106.722 20.006L103.507 9.2148H99.8849L104.897 24.2032C104.521 24.8883 103.969 25.3167 103.014 25.3167C102.376 25.3167 101.826 25.1169 101.449 24.7455V27.5147C101.449 27.5147 101.971 28 103.332 28ZM114.578 9.2148V23.5751H118.026V11.8991H123.356V9.21387H114.578V9.2148ZM125.386 9.2148V23.5751H128.37L133.701 14.6963V23.5751H137.061V9.2148H134.077L128.747 18.0936V9.2148H125.386Z" fill="black"/>
<path d="M41.3059 26.1333C48.5645 26.1333 54.4488 20.2832 54.4488 13.0667C54.4488 5.85015 48.5645 0 41.3059 0C34.0473 0 28.1631 5.85015 28.1631 13.0667C28.1631 20.2832 34.0473 26.1333 41.3059 26.1333Z" fill="black"/>
<path d="M37.3314 4.57147C35.9045 5.51226 34.9061 6.97227 34.5509 8.63744C34.1957 10.3026 34.5121 12.0398 35.432 13.4755C36.3519 14.9111 37.8019 15.9303 39.4699 16.314C41.138 16.6976 42.8909 16.415 44.3515 15.5269L53.9402 9.45373C53.2816 7.18503 52.0179 5.13572 50.2831 3.523C48.5482 1.91027 46.4068 0.794202 44.0859 0.293067L37.3314 4.57147Z" fill="#FF9D7C"/>
<path d="M37.3314 4.57147C35.9045 5.51226 34.9061 6.97227 34.5509 8.63744C34.1957 10.3026 34.5121 12.0398 35.432 13.4755C36.3519 14.9111 37.8019 15.9303 39.4699 16.314C41.138 16.6976 42.8909 16.415 44.3515 15.5269L53.9402 9.45373C53.2816 7.18503 52.0179 5.13572 50.2831 3.523C48.5482 1.91027 46.4068 0.794202 44.0859 0.293067L37.3314 4.57147Z" fill="#FF6432"/>
<path d="M37.3314 4.57147C35.9045 5.51226 34.9061 6.97227 34.5509 8.63744C34.1957 10.3026 34.5121 12.0398 35.432 13.4755C36.3519 14.9111 37.8019 15.9303 39.4699 16.314C41.138 16.6976 42.8909 16.415 44.3515 15.5269L53.9402 9.45373C53.2816 7.18503 52.0179 5.13572 50.2831 3.523C48.5482 1.91027 46.4068 0.794202 44.0859 0.293067L37.3314 4.57147Z" fill="url(#paint0_radial_73_874)"/>
<path d="M37.3314 4.57147C35.9045 5.51226 34.9061 6.97227 34.5509 8.63744C34.1957 10.3026 34.5121 12.0398 35.432 13.4755C36.3519 14.9111 37.8019 15.9303 39.4699 16.314C41.138 16.6976 42.8909 16.415 44.3515 15.5269L53.9402 9.45373C53.2816 7.18503 52.0179 5.13572 50.2831 3.523C48.5482 1.91027 46.4068 0.794202 44.0859 0.293067L37.3314 4.57147Z" fill="url(#paint1_linear_73_874)"/>
<path d="M28.6704 16.6731L38.2628 10.5971C38.9864 10.1388 39.7937 9.8267 40.6386 9.67861C41.4836 9.53052 42.3495 9.54933 43.1872 9.73398C44.0248 9.91863 44.8176 10.2655 45.5204 10.7548C46.2231 11.244 46.8221 11.8661 47.283 12.5855C47.744 13.3049 48.0579 14.1076 48.2069 14.9476C48.3558 15.7876 48.3369 16.6486 48.1512 17.4813C47.9654 18.3141 47.6166 19.1023 47.1244 19.801C46.6323 20.4997 46.0066 21.0952 45.283 21.5535L38.5172 25.8384C36.1971 25.3357 34.0569 24.2184 32.3234 22.6048C30.5899 20.9913 29.3277 18.9417 28.6704 16.6731Z" fill="#FFE66E"/>
<path d="M28.6704 16.6731L38.2628 10.5971C38.9864 10.1388 39.7937 9.8267 40.6386 9.67861C41.4836 9.53052 42.3495 9.54933 43.1872 9.73398C44.0248 9.91863 44.8176 10.2655 45.5204 10.7548C46.2231 11.244 46.8221 11.8661 47.283 12.5855C47.744 13.3049 48.0579 14.1076 48.2069 14.9476C48.3558 15.7876 48.3369 16.6486 48.1512 17.4813C47.9654 18.3141 47.6166 19.1023 47.1244 19.801C46.6323 20.4997 46.0066 21.0952 45.283 21.5535L38.5172 25.8384C36.1971 25.3357 34.0569 24.2184 32.3234 22.6048C30.5899 20.9913 29.3277 18.9417 28.6704 16.6731Z" fill="url(#paint2_linear_73_874)"/>
</g>
<defs>
<radialGradient id="paint0_radial_73_874" cx="0" cy="0" r="1" gradientUnits="userSpaceOnUse" gradientTransform="translate(38.2852 18.2056) rotate(-34.7268) scale(15.7079 11.5364)">
<stop stop-color="#CC0700" stop-opacity="0.97"/>
<stop offset="0.067" stop-color="#CC0700" stop-opacity="0.962"/>
<stop offset="0.133" stop-color="#CC0700" stop-opacity="0.936"/>
<stop offset="0.2" stop-color="#CC0700" stop-opacity="0.891"/>
<stop offset="0.267" stop-color="#CC0700" stop-opacity="0.827"/>
<stop offset="0.333" stop-color="#CC0700" stop-opacity="0.745"/>
<stop offset="0.4" stop-color="#CC0700" stop-opacity="0.648"/>
<stop offset="0.467" stop-color="#CC0700" stop-opacity="0.541"/>
<stop offset="0.533" stop-color="#CC0700" stop-opacity="0.429"/>
<stop offset="0.6" stop-color="#CC0700" stop-opacity="0.322"/>
<stop offset="0.667" stop-color="#CC0700" stop-opacity="0.225"/>
<stop offset="0.733" stop-color="#CC0700" stop-opacity="0.143"/>
<stop offset="0.8" stop-color="#CC0700" stop-opacity="0.079"/>
<stop offset="0.867" stop-color="#CC0700" stop-opacity="0.034"/>
<stop offset="0.933" stop-color="#CC0700" stop-opacity="0.01"/>
<stop offset="1" stop-color="#CC0700" stop-opacity="0"/>
</radialGradient>
<linearGradient id="paint1_linear_73_874" x1="39.1291" y1="14.8419" x2="48.1545" y2="-7.06978" gradientUnits="userSpaceOnUse">
<stop stop-color="#FF8140" stop-opacity="0"/>
<stop offset="0.067" stop-color="#FF8140" stop-opacity="0.01"/>
<stop offset="0.133" stop-color="#FF8140" stop-opacity="0.036"/>
<stop offset="0.2" stop-color="#FF8140" stop-opacity="0.082"/>
<stop offset="0.267" stop-color="#FF8140" stop-opacity="0.147"/>
<stop offset="0.333" stop-color="#FF8140" stop-opacity="0.232"/>
<stop offset="0.4" stop-color="#FF8140" stop-opacity="0.332"/>
<stop offset="0.467" stop-color="#FF8140" stop-opacity="0.443"/>
<stop offset="0.533" stop-color="#FF8140" stop-opacity="0.557"/>
<stop offset="0.6" stop-color="#FF8140" stop-opacity="0.668"/>
<stop offset="0.667" stop-color="#FF8140" stop-opacity="0.768"/>
<stop offset="0.733" stop-color="#FF8140" stop-opacity="0.853"/>
<stop offset="0.8" stop-color="#FF8140" stop-opacity="0.918"/>
<stop offset="0.867" stop-color="#FF8140" stop-opacity="0.964"/>
<stop offset="0.933" stop-color="#FF8140" stop-opacity="0.991"/>
<stop offset="1" stop-color="#FF8140"/>
</linearGradient>
<linearGradient id="paint2_linear_73_874" x1="39.5208" y1="14.8073" x2="30.9252" y2="27.1519" gradientUnits="userSpaceOnUse">
<stop stop-color="#FFD750" stop-opacity="0"/>
<stop offset="1" stop-color="#FFD750"/>
</linearGradient>
<clipPath id="clip0_73_874">
<rect width="138" height="28" fill="white"/>
</clipPath>
</defs>
</svg>
